<svg fill="none" height="100" viewBox="0 0 100 100" width="100" xmlns="http://www.w3.org/2000/svg"><g fill="#001c4e"><path d="m0 0h16v16h-16z" transform="matrix(-1 0 0 1 34 82)"/><path d="m0 0h16v16h-16z" transform="matrix(1 .00000009 .00000009 -1 66 18)"/><path d="m0 0h16v16h-16z" transform="matrix(-1 0 0 1 18 66)"/><path d="m0 0h16v16h-16z" transform="matrix(1 .00000009 .00000009 -1 82 34)"/><path d="m0 0h16v16h-16z" transform="matrix(-1 0 0 1 34 50)"/><path d="m0 0h16v16h-16z" transform="matrix(1 .00000009 .00000009 -1 66 50)"/><path d="m0 0h16v16h-16z" transform="matrix(-1 0 0 1 50 66)"/><path d="m0 0h16v16h-16z" transform="matrix(1 .00000009 .00000009 -1 50 34)"/><path d="m0 0h16v16h-16z" transform="matrix(-1 0 0 1 66 66)"/><path d="m0 0h16v16h-16z" transform="matrix(1 .00000009 .00000009 -1 34 34)"/><path d="m0 0h16v16h-16z" transform="matrix(-1 0 0 1 82 66)"/><path d="m0 0h16v16h-16z" transform="matrix(1 .00000009 .00000009 -1 18 34)"/><path d="m0 0h16v16h-16z" transform="matrix(-1 0 0 1 98 66)"/><path d="m0 0h16v16h-16z" transform="matrix(1 .00000009 .00000009 -1 2 34)"/><path d="m0 0h16v16h-16z" transform="matrix(-1 0 0 1 98 50)"/><path d="m0 0h16v16h-16z" transform="matrix(1 .00000009 .00000009 -1 2 50)"/></g></svg>