<svg fill="none" height="100" viewBox="0 0 100 100" width="100" xmlns="http://www.w3.org/2000/svg"><g fill="#001c4e"><path d="m0 0h24v48h-24z" transform="matrix(1 .00000009 .00000009 -1 2 74)"/><path d="m0 0h24v48h-24z" transform="matrix(1 .00000009 .00000009 -1 74 74)"/><path d="m0 0h96v16h-96z" transform="matrix(-1 0 0 1 98 82)"/><path d="m0 0h16v16h-16z" transform="matrix(-1 0 0 1 18 2)"/><path d="m0 0h16v16h-16z" transform="matrix(1 .00000009 .00000009 -1 58 42)"/><path d="m0 0h16v16h-16z" transform="matrix(1 .00000009 .00000009 -1 58 74)"/><path d="m0 0h16v16h-16z" transform="matrix(1 .00000009 .00000009 -1 26 42)"/><path d="m0 0h16v16h-16z" transform="matrix(1 .00000009 .00000009 -1 26 74)"/><path d="m0 0h16v16h-16z" transform="matrix(1 .00000009 .00000009 -1 42 58)"/><path d="m0 0h96v16h-96z" transform="matrix(1 .00000009 .00000009 -1 2 26)"/><path d="m0 0h96v16h-96z" transform="matrix(1 .00000009 .00000009 -1 2 90)"/><path d="m0 0h16v16h-16z" transform="matrix(1 .00000009 .00000009 -1 82 18)"/><path d="m0 0h16v16h-16z" transform="matrix(1 .00000009 .00000009 -1 66 18)"/><path d="m0 0h16v16h-16z" transform="matrix(1 .00000009 .00000009 -1 50 18)"/><path d="m0 0h16v16h-16z" transform="matrix(1 .00000009 .00000009 -1 34 18)"/><path d="m0 0h16v16h-16z" transform="matrix(1 .00000009 .00000009 -1 18 18)"/></g></svg>