<svg width="100" height="100" viewBox="0 0 100 100" fill="none" xmlns="http://www.w3.org/2000/svg">
<rect width="16" height="16" transform="matrix(-1 0 0 1 18 82)" fill="#001C4E"/>
<rect width="16" height="16" transform="matrix(-1 0 0 1 50 82)" fill="#001C4E"/>
<rect width="16" height="16" transform="matrix(-1 0 0 1 66 66)" fill="#001C4E"/>
<rect width="16" height="16" transform="matrix(-1 0 0 1 82 66)" fill="#001C4E"/>
<rect width="16" height="16" transform="matrix(-1 0 0 1 66 82)" fill="#001C4E"/>
<rect width="16" height="16" transform="matrix(-1 0 0 1 82 82)" fill="#001C4E"/>
<rect width="16" height="16" transform="matrix(-1 0 0 1 82 50)" fill="#001C4E"/>
<rect width="16" height="16" transform="matrix(-1 0 0 1 98 50)" fill="#001C4E"/>
<rect width="16" height="16" transform="matrix(-1 0 0 1 98 66)" fill="#001C4E"/>
<rect width="16" height="16" transform="matrix(-1 0 0 1 98 82)" fill="#001C4E"/>
<rect width="16" height="16" transform="matrix(-1 0 0 1 98 34)" fill="#001C4E"/>
<rect width="16" height="16" transform="matrix(1 8.74228e-08 8.74228e-08 -1 18 82)" fill="#001C4E"/>
<rect width="16" height="16" transform="matrix(1 8.74228e-08 8.74228e-08 -1 34 66)" fill="#001C4E"/>
<rect width="16" height="16" transform="matrix(1 8.74228e-08 8.74228e-08 -1 50 50)" fill="#001C4E"/>
<rect width="16" height="16" transform="matrix(1 8.74228e-08 8.74228e-08 -1 66 34)" fill="#001C4E"/>
<rect width="16" height="16" transform="matrix(1 8.74228e-08 8.74228e-08 -1 82 18)" fill="#001C4E"/>
</svg>
