<svg width="100" height="100" viewBox="0 0 100 100" fill="none" xmlns="http://www.w3.org/2000/svg">
<rect width="96" height="16" transform="matrix(-1 0 0 1 98 82)" fill="#00004B"/>
<rect width="96" height="16" transform="matrix(-1 0 0 1 98 66)" fill="#00004B"/>
<rect width="16" height="16" transform="matrix(-1 0 0 1 58 34)" fill="#00004B"/>
<rect width="16" height="16" transform="matrix(-1 0 0 1 74 2)" fill="#00004B"/>
<rect width="16" height="16" transform="matrix(-1 0 0 1 26 18)" fill="#00004B"/>
<rect width="16" height="16" transform="matrix(-1 0 0 1 90 18)" fill="#00004B"/>
<rect width="16" height="16" transform="matrix(-1 0 0 1 42 2)" fill="#00004B"/>
<rect width="16" height="16" transform="matrix(-1 0 0 1 58 18)" fill="#00004B"/>
<rect width="16" height="16" transform="matrix(-1 0 0 1 18 50)" fill="#00004B"/>
<rect width="24" height="16" transform="matrix(-1 0 0 1 42 50)" fill="#00004B"/>
<rect width="24" height="16" transform="matrix(-1 0 0 1 82 50)" fill="#00004B"/>
<rect width="16" height="16" transform="matrix(-1 0 0 1 98 50)" fill="#00004B"/>
</svg>
