<svg fill="none" height="100" viewBox="0 0 100 100" width="100" xmlns="http://www.w3.org/2000/svg"><g fill="#00004b"><path d="m0 0h96v16h-96z" transform="matrix(-1 0 0 1 98 82)"/><path d="m0 0h96v16h-96z" transform="matrix(-1 0 0 1 98 66)"/><path d="m0 0h16v16h-16z" transform="matrix(-1 0 0 1 58 34)"/><path d="m0 0h16v16h-16z" transform="matrix(-1 0 0 1 74 2)"/><path d="m0 0h16v16h-16z" transform="matrix(-1 0 0 1 26 18)"/><path d="m0 0h16v16h-16z" transform="matrix(-1 0 0 1 90 18)"/><path d="m0 0h16v16h-16z" transform="matrix(-1 0 0 1 42 2)"/><path d="m0 0h16v16h-16z" transform="matrix(-1 0 0 1 58 18)"/><path d="m0 0h16v16h-16z" transform="matrix(-1 0 0 1 18 50)"/><path d="m0 0h24v16h-24z" transform="matrix(-1 0 0 1 42 50)"/><path d="m0 0h24v16h-24z" transform="matrix(-1 0 0 1 82 50)"/><path d="m0 0h16v16h-16z" transform="matrix(-1 0 0 1 98 50)"/></g></svg>