<svg width="100" height="100" viewBox="0 0 100 100" fill="none" xmlns="http://www.w3.org/2000/svg">
<rect width="24" height="48" transform="matrix(1 8.74228e-08 8.74228e-08 -1 2 74)" fill="#001C4E"/>
<rect width="24" height="48" transform="matrix(1 8.74228e-08 8.74228e-08 -1 74 74)" fill="#001C4E"/>
<rect width="96" height="16" transform="matrix(-1 0 0 1 98 82)" fill="#001C4E"/>
<rect width="16" height="16" transform="matrix(-1 0 0 1 18 2)" fill="#001C4E"/>
<rect width="16" height="16" transform="matrix(1 8.74228e-08 8.74228e-08 -1 58 42)" fill="#001C4E"/>
<rect width="16" height="16" transform="matrix(1 8.74228e-08 8.74228e-08 -1 58 74)" fill="#001C4E"/>
<rect width="16" height="16" transform="matrix(1 8.74228e-08 8.74228e-08 -1 26 42)" fill="#001C4E"/>
<rect width="16" height="16" transform="matrix(1 8.74228e-08 8.74228e-08 -1 26 74)" fill="#001C4E"/>
<rect width="16" height="16" transform="matrix(1 8.74228e-08 8.74228e-08 -1 42 58)" fill="#001C4E"/>
<rect width="96" height="16" transform="matrix(1 8.74228e-08 8.74228e-08 -1 2 26)" fill="#001C4E"/>
<rect width="96" height="16" transform="matrix(1 8.74228e-08 8.74228e-08 -1 2 90)" fill="#001C4E"/>
<rect width="16" height="16" transform="matrix(1 8.74228e-08 8.74228e-08 -1 82 18)" fill="#001C4E"/>
<rect width="16" height="16" transform="matrix(1 8.74228e-08 8.74228e-08 -1 66 18)" fill="#001C4E"/>
<rect width="16" height="16" transform="matrix(1 8.74228e-08 8.74228e-08 -1 50 18)" fill="#001C4E"/>
<rect width="16" height="16" transform="matrix(1 8.74228e-08 8.74228e-08 -1 34 18)" fill="#001C4E"/>
<rect width="16" height="16" transform="matrix(1 8.74228e-08 8.74228e-08 -1 18 18)" fill="#001C4E"/>
</svg>
