<svg width="690" height="880" viewBox="0 0 690 880" fill="none" xmlns="http://www.w3.org/2000/svg">
<g clip-path="url(#clip0_284_1458)">
<rect width="690" height="880" fill="#001C4E"/>
<g filter="url(#filter0_g_284_1458)">
<ellipse cx="344.5" cy="439.5" rx="376.5" ry="376.5" transform="rotate(-180 344.5 439.5)" fill="url(#paint0_linear_284_1458)" fill-opacity="0.9"/>
</g>
<path d="M359.737 675.8C349.923 675.8 340.359 669.513 331.473 657.636C322.602 645.78 314.563 628.547 307.79 607.145C294.249 564.356 285.855 505.168 285.855 439.738C285.855 374.308 294.249 315.121 307.79 272.331C314.563 250.929 322.602 233.697 331.473 221.841C340.359 209.963 349.923 203.677 359.737 203.677C369.551 203.677 379.115 209.963 388.002 221.841C396.873 233.697 404.913 250.929 411.686 272.331C425.227 315.121 433.62 374.308 433.62 439.738C433.62 505.168 425.227 564.356 411.686 607.146C404.913 628.547 396.873 645.78 388.002 657.636C379.115 669.513 369.551 675.8 359.737 675.8Z" stroke="white" stroke-width="2.39975"/>
<path d="M595.8 439.749C595.8 449.563 589.513 459.127 577.636 468.014C565.78 476.884 548.547 484.924 527.146 491.696C484.356 505.237 425.168 513.632 359.738 513.632C294.308 513.632 235.121 505.237 192.331 491.696C170.929 484.924 153.697 476.884 141.841 468.014C129.963 459.127 123.677 449.563 123.677 439.749C123.677 429.935 129.963 420.371 141.841 411.484C153.697 402.614 170.929 394.573 192.331 387.801C235.121 374.26 294.308 365.866 359.738 365.866C425.168 365.866 484.356 374.26 527.146 387.801C548.547 394.574 565.78 402.614 577.636 411.484C589.513 420.371 595.8 429.935 595.8 439.749Z" stroke="white" stroke-width="2.39975"/>
<path d="M561.265 556.864C561.265 565.23 555.941 573.413 545.812 581.04C535.704 588.652 521.001 595.559 502.725 601.38C466.186 613.018 415.633 620.235 359.741 620.235C303.849 620.235 253.297 613.018 216.758 601.38C198.482 595.559 183.779 588.652 173.671 581.04C163.542 573.413 158.218 565.23 158.218 556.864C158.218 548.498 163.542 540.316 173.671 532.688C183.779 525.076 198.482 518.17 216.758 512.349C253.297 500.71 303.849 493.493 359.741 493.493C415.633 493.493 466.186 500.71 502.725 512.349C521.001 518.17 535.704 525.076 545.812 532.688C555.941 540.316 561.265 548.498 561.265 556.864Z" stroke="white" stroke-width="2.39975"/>
<path d="M561.265 322.607C561.265 330.974 555.941 339.156 545.812 346.783C535.704 354.395 521.001 361.302 502.725 367.123C466.186 378.761 415.633 385.979 359.741 385.979C303.849 385.978 253.297 378.761 216.758 367.123C198.482 361.302 183.779 354.395 173.671 346.783C163.542 339.156 158.218 330.974 158.218 322.607C158.218 314.241 163.542 306.059 173.671 298.432C183.779 290.82 198.482 283.913 216.758 278.092C253.297 266.454 303.849 259.236 359.741 259.236C415.633 259.236 466.186 266.454 502.725 278.092C521.001 283.913 535.704 290.819 545.812 298.432C555.941 306.059 561.265 314.241 561.265 322.607Z" stroke="white" stroke-width="2.39975"/>
<path d="M359.739 675.804C314.628 675.804 273.661 649.541 243.923 606.826C214.187 564.115 195.758 505.046 195.758 439.742C195.758 374.439 214.187 315.369 243.923 272.658C273.661 229.943 314.628 203.681 359.739 203.681C404.851 203.681 445.818 229.943 475.557 272.658C505.292 315.369 523.722 374.439 523.722 439.742C523.722 505.046 505.292 564.115 475.557 606.826C445.818 649.541 404.851 675.804 359.739 675.804Z" stroke="white" stroke-width="2.39975"/>
<rect width="31.1968" height="31.1968" transform="matrix(-1 0 0 1 261.484 256.612)" fill="white"/>
<rect width="31.1968" height="31.1968" transform="matrix(-1 0 0 1 448.664 367.001)" fill="white"/>
<rect width="31.1968" height="31.1968" transform="matrix(-1 0 0 1 535.055 478.589)" fill="white"/>
<rect width="31.1968" height="31.1968" transform="matrix(-1 0 0 1 262.684 587.778)" fill="white"/>
</g>
<defs>
<filter id="filter0_g_284_1458" x="-92" y="3" width="873" height="873" filterUnits="userSpaceOnUse" color-interpolation-filters="sRGB">
<feFlood flood-opacity="0" result="BackgroundImageFix"/>
<feBlend mode="normal" in="SourceGraphic" in2="BackgroundImageFix" result="shape"/>
<feTurbulence type="fractalNoise" baseFrequency="0.5 0.5" numOctaves="3" seed="3166" />
<feDisplacementMap in="shape" scale="120" xChannelSelector="R" yChannelSelector="G" result="displacedImage" width="100%" height="100%" />
<feMerge result="effect1_texture_284_1458">
<feMergeNode in="displacedImage"/>
</feMerge>
</filter>
<linearGradient id="paint0_linear_284_1458" x1="344.313" y1="816" x2="344.313" y2="63" gradientUnits="userSpaceOnUse">
<stop offset="0.375551" stop-color="#9EE6FF" stop-opacity="0.95"/>
<stop offset="0.875771" stop-color="#001C4E"/>
<stop offset="1" stop-color="#001C4E"/>
</linearGradient>
<clipPath id="clip0_284_1458">
<rect width="690" height="880" fill="white"/>
</clipPath>
</defs>
</svg>
