<svg fill="none" height="217" viewBox="0 0 217 217" width="217" xmlns="http://www.w3.org/2000/svg"><path d="m0 0h217v217h-217z" fill="#9ecca6"/><g fill="#032869"><path d="m0 0h12v12h-12z" transform="matrix(-1 0 0 1 115 103)"/><path d="m0 0h12v12h-12z" transform="matrix(-1 0 0 1 91 103)"/><path d="m0 0h12v12h-12z" transform="matrix(-1 0 0 1 139 103)"/><path d="m0 0h12v12h-12z" transform="matrix(-1 0 0 1 115 79)"/><path d="m0 0h12v12h-12z" transform="matrix(-1 0 0 1 115 127)"/><path d="m0 0h12v12h-12z" transform="matrix(-1 0 0 1 139 127)"/><path d="m0 0h12v12h-12z" transform="matrix(-1 0 0 1 91 127)"/><path d="m0 0h12v12h-12z" transform="matrix(-1 0 0 1 127 91)"/><path d="m0 0h12v12h-12z" transform="matrix(-1 0 0 1 127 115)"/><path d="m0 0h12v12h-12z" transform="matrix(-1 0 0 1 103 115)"/><path d="m0 0h12v12h-12z" transform="matrix(-1 0 0 1 103 91)"/><path d="m0 0h12v12h-12z" transform="matrix(-1 0 0 1 91 79)"/><path d="m0 0h12v12h-12z" transform="matrix(-1 0 0 1 139 79)"/></g></svg>