<svg fill="none" height="217" viewBox="0 0 217 217" width="217" xmlns="http://www.w3.org/2000/svg"><path d="m0 0h217v217h-217z" fill="#9ecca6"/><g fill="#032869"><path d="m0 0h12v12h-12z" transform="matrix(-1 0 0 1 115 103)"/><path d="m0 0h12v12h-12z" transform="matrix(-1 0 0 1 86.5 103)"/><path d="m0 0h12v12h-12z" transform="matrix(-1 0 0 1 143.5 103)"/><path d="m0 0h12v12h-12z" transform="matrix(-1 0 0 1 115 74.5)"/><path d="m0 0h12v12h-12z" transform="matrix(-1 0 0 1 115 131.5)"/><path d="m0 0h12v12h-12z" transform="matrix(-1 0 0 1 131.5 86.5)"/><path d="m0 0h12v12h-12z" transform="matrix(-1 0 0 1 131.5 119.5)"/><path d="m0 0h12v12h-12z" transform="matrix(-1 0 0 1 98.5 119.5)"/><path d="m0 0h12v12h-12z" transform="matrix(-1 0 0 1 98.5 86.5)"/></g></svg>