<svg fill="none" height="217" viewBox="0 0 217 217" width="217" xmlns="http://www.w3.org/2000/svg"><path d="m0 0h217v217h-217z" fill="#9ee6ff"/><g fill="#032869"><path d="m0 0h12v12h-12z" transform="matrix(-1 0 0 1 90.5 132.5)"/><path d="m0 0h12v12h-12z" transform="matrix(-1 0 0 1 114.5 108.5)"/><path d="m0 0h12v12h-12z" transform="matrix(-1 0 0 1 114.5 96.5)"/><path d="m0 0h12v12h-12z" transform="matrix(-1 0 0 1 114.5 84.5)"/><path d="m0 0h12v12h-12z" transform="matrix(-1 0 0 1 114.5 72.5)"/><path d="m0 0h12v12h-12z" transform="matrix(-1 0 0 1 138.5 132.5)"/><path d="m0 0h12v12h-12z" transform="matrix(.00000004 -1 -1 -.00000004 102.5 132.5)"/><path d="m0 0h12v12h-12z" transform="matrix(.00000004 -1 -1 -.00000004 90.5 120.5)"/><path d="m0 0h12v12h-12z" transform="matrix(.00000004 -1 -1 -.00000004 126.5 132.5)"/><path d="m0 0h12v12h-12z" transform="matrix(.00000004 -1 -1 -.00000004 138.5 120.5)"/><path d="m0 0h12v12h-12z" transform="matrix(.00000004 -1 -1 -.00000004 114.5 144.5)"/></g></svg>