<svg fill="none" height="217" viewBox="0 0 217 217" width="217" xmlns="http://www.w3.org/2000/svg"><path d="m0 0h217v217h-217z" fill="#9ecca6"/><g fill="#032869"><path d="m0 0h12v12h-12z" transform="matrix(-1 0 0 1 84.5 102.5)"/><path d="m0 0h12v12h-12z" transform="matrix(1 .00000009 .00000009 -1 132.5 114.5)"/><path d="m0 0h12v12h-12z" transform="matrix(-1 0 0 1 108.5 74)"/><path d="m0 0h12v12h-12z" transform="matrix(1 .00000009 .00000009 -1 108.5 143)"/><path d="m0 0h12v12h-12z" transform="matrix(-1 0 0 1 120.5 74)"/><path d="m0 0h12v12h-12z" transform="matrix(1 .00000009 .00000009 -1 96.5 143)"/><path d="m0 0h12v16.5h-12z" transform="matrix(-1 0 0 1 96.5 86)"/><path d="m0 0h12v16.5h-12z" transform="matrix(1 .00000009 .00000009 -1 120.5 131)"/><path d="m0 0h12v16.5h-12z" transform="matrix(-1 0 0 1 132.5 86)"/><path d="m0 0h12v16.5h-12z" transform="matrix(1 .00000009 .00000009 -1 84.5 131)"/><path d="m0 0h12v12h-12z" transform="matrix(-1 0 0 1 114.5 102.5)"/></g></svg>