<svg width="217" height="217" viewBox="0 0 217 217" fill="none" xmlns="http://www.w3.org/2000/svg">
<rect width="217" height="217" fill="#AE66D6"/>
<rect width="12" height="12" transform="matrix(-1 0 0 1 84.5 120.5)" fill="#032869"/>
<rect width="12" height="12" transform="matrix(-1 0 0 1 144.5 120.5)" fill="#032869"/>
<rect width="12" height="12" transform="matrix(-1 0 0 1 84.5 108.5)" fill="#032869"/>
<rect width="12" height="12" transform="matrix(-1 0 0 1 144.5 108.5)" fill="#032869"/>
<rect width="12" height="12" transform="matrix(-1 0 0 1 84.5 96.5)" fill="#032869"/>
<rect width="12" height="12" transform="matrix(-1 0 0 1 144.5 96.5)" fill="#032869"/>
<rect width="12" height="12" transform="matrix(-1 0 0 1 84.5 84.5)" fill="#032869"/>
<rect width="12" height="12" transform="matrix(-1 0 0 1 144.5 84.5)" fill="#032869"/>
<rect width="12" height="12" transform="matrix(-1 0 0 1 96.5 132.5)" fill="#032869"/>
<rect width="12" height="12" transform="matrix(-1 0 0 1 96.5 72.5)" fill="#032869"/>
<rect width="12" height="12" transform="matrix(-1 0 0 1 108.5 132.5)" fill="#032869"/>
<rect width="12" height="12" transform="matrix(-1 0 0 1 108.5 72.5)" fill="#032869"/>
<rect width="12" height="12" transform="matrix(-1 0 0 1 120.5 132.5)" fill="#032869"/>
<rect width="12" height="12" transform="matrix(-1 0 0 1 120.5 72.5)" fill="#032869"/>
<rect width="12" height="12" transform="matrix(-1 0 0 1 114.5 102.5)" fill="#032869"/>
<rect width="12" height="12" transform="matrix(-1 0 0 1 132.5 132.5)" fill="#032869"/>
<rect width="12" height="12" transform="matrix(-1 0 0 1 132.5 72.5)" fill="#032869"/>
</svg>
