<svg width="217" height="217" viewBox="0 0 217 217" fill="none" xmlns="http://www.w3.org/2000/svg">
<rect width="217" height="217" fill="#9ECCA6"/>
<rect width="12" height="12" transform="matrix(-1 0 0 1 84.5 102.5)" fill="#032869"/>
<rect width="12" height="12" transform="matrix(1 8.74228e-08 8.74228e-08 -1 132.5 114.5)" fill="#032869"/>
<rect width="12" height="12" transform="matrix(-1 0 0 1 108.5 74)" fill="#032869"/>
<rect width="12" height="12" transform="matrix(1 8.74228e-08 8.74228e-08 -1 108.5 143)" fill="#032869"/>
<rect width="12" height="12" transform="matrix(-1 0 0 1 120.5 74)" fill="#032869"/>
<rect width="12" height="12" transform="matrix(1 8.74228e-08 8.74228e-08 -1 96.5 143)" fill="#032869"/>
<rect width="12" height="16.5" transform="matrix(-1 0 0 1 96.5 86)" fill="#032869"/>
<rect width="12" height="16.5" transform="matrix(1 8.74228e-08 8.74228e-08 -1 120.5 131)" fill="#032869"/>
<rect width="12" height="16.5" transform="matrix(-1 0 0 1 132.5 86)" fill="#032869"/>
<rect width="12" height="16.5" transform="matrix(1 8.74228e-08 8.74228e-08 -1 84.5 131)" fill="#032869"/>
<rect width="12" height="12" transform="matrix(-1 0 0 1 114.5 102.5)" fill="#032869"/>
</svg>
