<svg fill="none" height="217" viewBox="0 0 217 217" width="217" xmlns="http://www.w3.org/2000/svg"><path d="m0 0h217v217h-217z" fill="#9ecca6"/><g fill="#032869"><path d="m0 0h12v12h-12z" transform="matrix(-1 0 0 1 114.5 78.5)"/><path d="m0 0h12v12h-12z" transform="matrix(-1 0 0 1 114.5 126.5)"/><path d="m0 0h12v12h-12z" transform="matrix(-1 0 0 1 126.5 90.5)"/><path d="m0 0h12v12h-12z" transform="matrix(-1 0 0 1 126.5 114.5)"/><path d="m0 0h12v12h-12z" transform="matrix(-1 0 0 1 102.5 114.5)"/><path d="m0 0h12v12h-12z" transform="matrix(-1 0 0 1 90.5 126.5)"/><path d="m0 0h12v12h-12z" transform="matrix(-1 0 0 1 102.5 90.5)"/><path d="m0 0h12v12h-12z" transform="matrix(-1 0 0 1 90.5 78.5)"/><path d="m0 0h12v12h-12z" transform="matrix(-1 0 0 1 114.5 102.5)"/><path d="m0 0h12v12h-12z" transform="matrix(-1 0 0 1 138.5 102.5)"/></g></svg>