<svg fill="none" height="217" viewBox="0 0 217 217" width="217" xmlns="http://www.w3.org/2000/svg"><path d="m0 0h217v217h-217z" fill="#9ee6ff"/><g fill="#032869"><path d="m0 0h12v12h-12z" transform="matrix(-1 0 0 1 115 73)"/><path d="m0 0h12v12h-12z" transform="matrix(-1 0 0 1 115 133)"/><path d="m0 0h12v12h-12z" transform="matrix(-1 0 0 1 136 82)"/><path d="m0 0h12v12h-12z" transform="matrix(-1 0 0 1 136 124)"/><path d="m0 0h12v12h-12z" transform="matrix(-1 0 0 1 94 124)"/><path d="m0 0h12v12h-12z" transform="matrix(-1 0 0 1 94 82)"/><path d="m0 0h12v12h-12z" transform="matrix(-1 0 0 1 85 103)"/><path d="m0 0h12v12h-12z" transform="matrix(-1 0 0 1 145 103)"/></g></svg>