<svg width="217" height="217" viewBox="0 0 217 217" fill="none" xmlns="http://www.w3.org/2000/svg">
<rect width="217" height="217" fill="#FFC220"/>
<rect width="12" height="12" transform="matrix(-1 0 0 1 86 131)" fill="#032869"/>
<rect width="12" height="12" transform="matrix(-1 0 0 1 86 107)" fill="#032869"/>
<rect width="12" height="12" transform="matrix(-1 0 0 1 98 107)" fill="#032869"/>
<rect width="12" height="12" transform="matrix(-1 0 0 1 110 107)" fill="#032869"/>
<rect width="12" height="12" transform="matrix(-1 0 0 1 134 107)" fill="#032869"/>
<rect width="12" height="12" transform="matrix(-1 0 0 1 98 95)" fill="#032869"/>
<rect width="12" height="12" transform="matrix(-1 0 0 1 110 131)" fill="#032869"/>
<rect width="12" height="12" transform="matrix(-1 0 0 1 110 119)" fill="#032869"/>
<rect width="12" height="12" transform="matrix(-1 0 0 1 134 131)" fill="#032869"/>
<rect width="12" height="12" transform="matrix(-1 0 0 1 98 119)" fill="#032869"/>
<rect width="12" height="12" transform="matrix(-1 0 0 1 86 119)" fill="#032869"/>
<rect width="12" height="12" transform="matrix(-1 0 0 1 86 95)" fill="#032869"/>
<rect width="12" height="12" transform="matrix(-1 0 0 1 98 131)" fill="#032869"/>
<rect width="12" height="12" transform="matrix(-1 0 0 1 122 119)" fill="#032869"/>
<rect width="12" height="12" transform="matrix(-1 0 0 1 122 131)" fill="#032869"/>
<rect width="12" height="12" transform="matrix(-1 0 0 1 122 95)" fill="#032869"/>
<rect width="12" height="12" transform="matrix(-1 0 0 1 110 83)" fill="#032869"/>
<rect width="12" height="12" transform="matrix(-1 0 0 1 86 83)" fill="#032869"/>
<rect width="12" height="12" transform="matrix(-1 0 0 1 143 74)" fill="#032869"/>
</svg>
