<svg width="217" height="217" viewBox="0 0 217 217" fill="none" xmlns="http://www.w3.org/2000/svg">
<rect width="217" height="217" fill="#9ECCA6"/>
<rect width="12" height="12" transform="matrix(-1 0 0 1 115 103)" fill="#032869"/>
<rect width="12" height="12" transform="matrix(-1 0 0 1 91 103)" fill="#032869"/>
<rect width="12" height="12" transform="matrix(-1 0 0 1 139 103)" fill="#032869"/>
<rect width="12" height="12" transform="matrix(-1 0 0 1 115 79)" fill="#032869"/>
<rect width="12" height="12" transform="matrix(-1 0 0 1 115 127)" fill="#032869"/>
<rect width="12" height="12" transform="matrix(-1 0 0 1 139 127)" fill="#032869"/>
<rect width="12" height="12" transform="matrix(-1 0 0 1 91 127)" fill="#032869"/>
<rect width="12" height="12" transform="matrix(-1 0 0 1 127 91)" fill="#032869"/>
<rect width="12" height="12" transform="matrix(-1 0 0 1 127 115)" fill="#032869"/>
<rect width="12" height="12" transform="matrix(-1 0 0 1 103 115)" fill="#032869"/>
<rect width="12" height="12" transform="matrix(-1 0 0 1 103 91)" fill="#032869"/>
<rect width="12" height="12" transform="matrix(-1 0 0 1 91 79)" fill="#032869"/>
<rect width="12" height="12" transform="matrix(-1 0 0 1 139 79)" fill="#032869"/>
</svg>
