<svg width="217" height="217" viewBox="0 0 217 217" fill="none" xmlns="http://www.w3.org/2000/svg">
<rect width="217" height="217" fill="#FFC220"/>
<rect width="12" height="12" transform="matrix(-1 0 0 1 86 119)" fill="#032869"/>
<rect width="12" height="12" transform="matrix(-1 0 0 1 86 74)" fill="#032869"/>
<rect width="12" height="12" transform="matrix(-1 0 0 1 86 131)" fill="#032869"/>
<rect width="12" height="12" transform="matrix(-1 0 0 1 86 86)" fill="#032869"/>
<rect width="12" height="12" transform="matrix(-1 0 0 1 114.5 102.5)" fill="#032869"/>
<rect width="12" height="12" transform="matrix(-1 0 0 1 143 131)" fill="#032869"/>
<rect width="12" height="12" transform="matrix(4.37114e-08 1 1 -4.37114e-08 131 74)" fill="#032869"/>
<rect width="12" height="12" transform="matrix(-1 0 0 1 98 131)" fill="#032869"/>
<rect width="12" height="12" transform="matrix(-1 0 0 1 98 74)" fill="#032869"/>
<rect width="12" height="12" transform="matrix(-1 0 0 1 131 131)" fill="#032869"/>
<rect width="12" height="12" transform="matrix(4.37114e-08 1 1 -4.37114e-08 131 86)" fill="#032869"/>
<rect width="12" height="12" transform="matrix(-1 0 0 1 143 119)" fill="#032869"/>
<rect width="12" height="12" transform="matrix(4.37114e-08 1 1 -4.37114e-08 119 74)" fill="#032869"/>
</svg>
