<svg width="217" height="217" viewBox="0 0 217 217" fill="none" xmlns="http://www.w3.org/2000/svg">
<rect width="217" height="217" fill="#FFC220"/>
<rect width="12" height="12" transform="matrix(1 -8.74228e-08 -8.74228e-08 -1 133 84)" fill="#032869"/>
<rect width="12" height="12" transform="matrix(1 -8.74228e-08 -8.74228e-08 -1 133 108)" fill="#032869"/>
<rect width="12" height="12" transform="matrix(1 -8.74228e-08 -8.74228e-08 -1 133 132)" fill="#032869"/>
<rect width="12" height="12" transform="matrix(1 -8.74228e-08 -8.74228e-08 -1 85 84)" fill="#032869"/>
<rect width="12" height="12" transform="matrix(1 -8.74228e-08 -8.74228e-08 -1 85 108)" fill="#032869"/>
<rect width="12" height="12" transform="matrix(1 -8.74228e-08 -8.74228e-08 -1 85 132)" fill="#032869"/>
<rect width="12" height="12" transform="matrix(1 -8.74228e-08 -8.74228e-08 -1 109 96)" fill="#032869"/>
<rect width="12" height="12" transform="matrix(1 -8.74228e-08 -8.74228e-08 -1 109 120)" fill="#032869"/>
<rect width="12" height="12" transform="matrix(1 -8.74228e-08 -8.74228e-08 -1 109 144)" fill="#032869"/>
<rect width="12" height="12" transform="matrix(1 -8.74228e-08 -8.74228e-08 -1 97 96)" fill="#032869"/>
<rect width="12" height="12" transform="matrix(1 -8.74228e-08 -8.74228e-08 -1 97 120)" fill="#032869"/>
<rect width="12" height="12" transform="matrix(1 -8.74228e-08 -8.74228e-08 -1 97 144)" fill="#032869"/>
<rect width="12" height="12" transform="matrix(1 -8.74228e-08 -8.74228e-08 -1 121 84)" fill="#032869"/>
<rect width="12" height="12" transform="matrix(1 -8.74228e-08 -8.74228e-08 -1 121 108)" fill="#032869"/>
<rect width="12" height="12" transform="matrix(1 -8.74228e-08 -8.74228e-08 -1 121 132)" fill="#032869"/>
<rect width="12" height="12" transform="matrix(1 -8.74228e-08 -8.74228e-08 -1 73 84)" fill="#032869"/>
<rect width="12" height="12" transform="matrix(1 -8.74228e-08 -8.74228e-08 -1 73 108)" fill="#032869"/>
<rect width="12" height="12" transform="matrix(1 -8.74228e-08 -8.74228e-08 -1 73 132)" fill="#032869"/>
</svg>
