<svg fill="none" height="217" viewBox="0 0 217 217" width="217" xmlns="http://www.w3.org/2000/svg"><path d="m0 0h217v217h-217z" fill="#9ecca6"/><g fill="#032869"><path d="m76 121h27v12h-27z"/><path d="m76 97h27v12h-27z"/><path d="m76 73h27v12h-27z"/><path d="m0 0h12v12h-12z" transform="matrix(-1 0 0 1 115 133)"/><path d="m0 0h12v12h-12z" transform="matrix(-1 0 0 1 115 109)"/><path d="m0 0h12v12h-12z" transform="matrix(-1 0 0 1 115 85)"/><path d="m115 121h27v12h-27z"/><path d="m115 97h27v12h-27z"/><path d="m115 73h27v12h-27z"/></g></svg>