<svg width="217" height="217" viewBox="0 0 217 217" fill="none" xmlns="http://www.w3.org/2000/svg">
<rect width="217" height="217" fill="#9EE6FF"/>
<rect width="12" height="12" transform="matrix(-1 0 0 1 115 73)" fill="#032869"/>
<rect width="12" height="12" transform="matrix(-1 0 0 1 115 133)" fill="#032869"/>
<rect width="12" height="12" transform="matrix(-1 0 0 1 136 82)" fill="#032869"/>
<rect width="12" height="12" transform="matrix(-1 0 0 1 136 124)" fill="#032869"/>
<rect width="12" height="12" transform="matrix(-1 0 0 1 94 124)" fill="#032869"/>
<rect width="12" height="12" transform="matrix(-1 0 0 1 94 82)" fill="#032869"/>
<rect width="12" height="12" transform="matrix(-1 0 0 1 85 103)" fill="#032869"/>
<rect width="12" height="12" transform="matrix(-1 0 0 1 145 103)" fill="#032869"/>
</svg>
