<svg fill="none" height="217" viewBox="0 0 217 217" width="217" xmlns="http://www.w3.org/2000/svg"><path d="m0 0h217v217h-217z" fill="#ffc220"/><g fill="#032869"><path d="m0 0h12v12h-12z" transform="matrix(1 -.00000009 -.00000009 -1 133 84)"/><path d="m0 0h12v12h-12z" transform="matrix(1 -.00000009 -.00000009 -1 133 108)"/><path d="m0 0h12v12h-12z" transform="matrix(1 -.00000009 -.00000009 -1 133 132)"/><path d="m0 0h12v12h-12z" transform="matrix(1 -.00000009 -.00000009 -1 85 84)"/><path d="m0 0h12v12h-12z" transform="matrix(1 -.00000009 -.00000009 -1 85 108)"/><path d="m0 0h12v12h-12z" transform="matrix(1 -.00000009 -.00000009 -1 85 132)"/><path d="m0 0h12v12h-12z" transform="matrix(1 -.00000009 -.00000009 -1 109 96)"/><path d="m0 0h12v12h-12z" transform="matrix(1 -.00000009 -.00000009 -1 109 120)"/><path d="m0 0h12v12h-12z" transform="matrix(1 -.00000009 -.00000009 -1 109 144)"/><path d="m0 0h12v12h-12z" transform="matrix(1 -.00000009 -.00000009 -1 97 96)"/><path d="m0 0h12v12h-12z" transform="matrix(1 -.00000009 -.00000009 -1 97 120)"/><path d="m0 0h12v12h-12z" transform="matrix(1 -.00000009 -.00000009 -1 97 144)"/><path d="m0 0h12v12h-12z" transform="matrix(1 -.00000009 -.00000009 -1 121 84)"/><path d="m0 0h12v12h-12z" transform="matrix(1 -.00000009 -.00000009 -1 121 108)"/><path d="m0 0h12v12h-12z" transform="matrix(1 -.00000009 -.00000009 -1 121 132)"/><path d="m0 0h12v12h-12z" transform="matrix(1 -.00000009 -.00000009 -1 73 84)"/><path d="m0 0h12v12h-12z" transform="matrix(1 -.00000009 -.00000009 -1 73 108)"/><path d="m0 0h12v12h-12z" transform="matrix(1 -.00000009 -.00000009 -1 73 132)"/></g></svg>