<svg fill="none" height="217" viewBox="0 0 217 217" width="217" xmlns="http://www.w3.org/2000/svg"><path d="m0 0h217v217h-217z" fill="#ffc220"/><g fill="#032869"><path d="m0 0h12v12h-12z" transform="matrix(-1 0 0 1 86 131)"/><path d="m0 0h12v12h-12z" transform="matrix(-1 0 0 1 86 107)"/><path d="m0 0h12v12h-12z" transform="matrix(-1 0 0 1 98 107)"/><path d="m0 0h12v12h-12z" transform="matrix(-1 0 0 1 110 107)"/><path d="m0 0h12v12h-12z" transform="matrix(-1 0 0 1 134 107)"/><path d="m0 0h12v12h-12z" transform="matrix(-1 0 0 1 98 95)"/><path d="m0 0h12v12h-12z" transform="matrix(-1 0 0 1 110 131)"/><path d="m0 0h12v12h-12z" transform="matrix(-1 0 0 1 110 119)"/><path d="m0 0h12v12h-12z" transform="matrix(-1 0 0 1 134 131)"/><path d="m0 0h12v12h-12z" transform="matrix(-1 0 0 1 98 119)"/><path d="m0 0h12v12h-12z" transform="matrix(-1 0 0 1 86 119)"/><path d="m0 0h12v12h-12z" transform="matrix(-1 0 0 1 86 95)"/><path d="m0 0h12v12h-12z" transform="matrix(-1 0 0 1 98 131)"/><path d="m0 0h12v12h-12z" transform="matrix(-1 0 0 1 122 119)"/><path d="m0 0h12v12h-12z" transform="matrix(-1 0 0 1 122 131)"/><path d="m0 0h12v12h-12z" transform="matrix(-1 0 0 1 122 95)"/><path d="m0 0h12v12h-12z" transform="matrix(-1 0 0 1 110 83)"/><path d="m0 0h12v12h-12z" transform="matrix(-1 0 0 1 86 83)"/><path d="m0 0h12v12h-12z" transform="matrix(-1 0 0 1 143 74)"/></g></svg>