<svg width="217" height="217" viewBox="0 0 217 217" fill="none" xmlns="http://www.w3.org/2000/svg">
<rect width="217" height="217" fill="#9ECCA6"/>
<rect width="12" height="12" transform="matrix(-1 0 0 1 115 103)" fill="#032869"/>
<rect width="12" height="12" transform="matrix(-1 0 0 1 86.5 103)" fill="#032869"/>
<rect width="12" height="12" transform="matrix(-1 0 0 1 143.5 103)" fill="#032869"/>
<rect width="12" height="12" transform="matrix(-1 0 0 1 115 74.5)" fill="#032869"/>
<rect width="12" height="12" transform="matrix(-1 0 0 1 115 131.5)" fill="#032869"/>
<rect width="12" height="12" transform="matrix(-1 0 0 1 131.5 86.5)" fill="#032869"/>
<rect width="12" height="12" transform="matrix(-1 0 0 1 131.5 119.5)" fill="#032869"/>
<rect width="12" height="12" transform="matrix(-1 0 0 1 98.5 119.5)" fill="#032869"/>
<rect width="12" height="12" transform="matrix(-1 0 0 1 98.5 86.5)" fill="#032869"/>
</svg>
