<svg fill="none" height="217" viewBox="0 0 217 217" width="217" xmlns="http://www.w3.org/2000/svg"><path d="m0 0h217v217h-217z" fill="#ffc220"/><g fill="#032869"><path d="m0 0h12v12h-12z" transform="matrix(-1 0 0 1 86 119)"/><path d="m0 0h12v12h-12z" transform="matrix(-1 0 0 1 86 74)"/><path d="m0 0h12v12h-12z" transform="matrix(-1 0 0 1 86 131)"/><path d="m0 0h12v12h-12z" transform="matrix(-1 0 0 1 86 86)"/><path d="m0 0h12v12h-12z" transform="matrix(-1 0 0 1 114.5 102.5)"/><path d="m0 0h12v12h-12z" transform="matrix(-1 0 0 1 143 131)"/><path d="m0 0h12v12h-12z" transform="matrix(.00000004 1 1 -.00000004 131 74)"/><path d="m0 0h12v12h-12z" transform="matrix(-1 0 0 1 98 131)"/><path d="m0 0h12v12h-12z" transform="matrix(-1 0 0 1 98 74)"/><path d="m0 0h12v12h-12z" transform="matrix(-1 0 0 1 131 131)"/><path d="m0 0h12v12h-12z" transform="matrix(.00000004 1 1 -.00000004 131 86)"/><path d="m0 0h12v12h-12z" transform="matrix(-1 0 0 1 143 119)"/><path d="m0 0h12v12h-12z" transform="matrix(.00000004 1 1 -.00000004 119 74)"/></g></svg>