<svg width="217" height="217" viewBox="0 0 217 217" fill="none" xmlns="http://www.w3.org/2000/svg">
<rect width="217" height="217" fill="#015EFE"/>
<rect width="12" height="12" transform="matrix(-1 0 0 1 134 84.5)" fill="#032869"/>
<rect width="12" height="12" transform="matrix(-1 0 0 1 96.5 84.5)" fill="#032869"/>
<rect width="12" height="12" transform="matrix(-1 0 0 1 144.5 132.5)" fill="#032869"/>
<rect width="12" height="12" transform="matrix(-1 0 0 1 84.5 132.5)" fill="#032869"/>
<rect width="12" height="12" transform="matrix(-1 0 0 1 96.5 120.5)" fill="#032869"/>
<rect width="12" height="12" transform="matrix(-1 0 0 1 108.5 132.5)" fill="#032869"/>
<rect width="12" height="12" transform="matrix(-1 0 0 1 120.5 132.5)" fill="#032869"/>
<rect width="12" height="12" transform="matrix(-1 0 0 1 132.5 120.5)" fill="#032869"/>
<rect width="12" height="12" transform="matrix(-1 0 0 1 84.5 108.5)" fill="#032869"/>
<rect width="12" height="12" transform="matrix(-1 0 0 1 96.5 108.5)" fill="#032869"/>
<rect width="12" height="12" transform="matrix(-1 0 0 1 108.5 108.5)" fill="#032869"/>
<rect width="12" height="12" transform="matrix(-1 0 0 1 120.5 108.5)" fill="#032869"/>
<rect width="12" height="12" transform="matrix(-1 0 0 1 132.5 108.5)" fill="#032869"/>
<rect width="12" height="12" transform="matrix(-1 0 0 1 144.5 108.5)" fill="#032869"/>
</svg>
