<svg width="217" height="217" viewBox="0 0 217 217" fill="none" xmlns="http://www.w3.org/2000/svg">
<rect width="217" height="217" fill="#FFC220"/>
<rect width="12" height="12" transform="matrix(-1 0 0 1 114.5 132.5)" fill="#032869"/>
<rect width="12" height="12" transform="matrix(-1 0 0 1 114.5 120.5)" fill="#032869"/>
<rect width="12" height="12" transform="matrix(-1 0 0 1 102.5 108.5)" fill="#032869"/>
<rect width="12" height="12" transform="matrix(-1 0 0 1 126.5 108.5)" fill="#032869"/>
<rect width="12" height="12" transform="matrix(-1 0 0 1 138.5 96.5)" fill="#032869"/>
<rect width="12" height="12" transform="matrix(-1 0 0 1 114.5 96.5)" fill="#032869"/>
<rect width="12" height="12" transform="matrix(-1 0 0 1 102.5 84.5)" fill="#032869"/>
<rect width="12" height="12" transform="matrix(-1 0 0 1 126.5 84.5)" fill="#032869"/>
<rect width="12" height="12" transform="matrix(-1 0 0 1 90.5 72.5)" fill="#032869"/>
<rect width="12" height="12" transform="matrix(-1 0 0 1 114.5 72.5)" fill="#032869"/>
<rect width="12" height="12" transform="matrix(-1 0 0 1 138.5 72.5)" fill="#032869"/>
<rect width="12" height="12" transform="matrix(-1 0 0 1 90.5 96.5)" fill="#032869"/>
<rect width="12" height="12" transform="matrix(-1 0 0 1 102.5 132.5)" fill="#032869"/>
<rect width="12" height="12" transform="matrix(-1 0 0 1 126.5 132.5)" fill="#032869"/>
</svg>
