<svg width="217" height="217" viewBox="0 0 217 217" fill="none" xmlns="http://www.w3.org/2000/svg">
<rect width="217" height="217" fill="#9EE6FF"/>
<rect width="12" height="12" transform="matrix(-1 0 0 1 90.5 132.5)" fill="#032869"/>
<rect width="12" height="12" transform="matrix(-1 0 0 1 114.5 108.5)" fill="#032869"/>
<rect width="12" height="12" transform="matrix(-1 0 0 1 114.5 96.5)" fill="#032869"/>
<rect width="12" height="12" transform="matrix(-1 0 0 1 114.5 84.5)" fill="#032869"/>
<rect width="12" height="12" transform="matrix(-1 0 0 1 114.5 72.5)" fill="#032869"/>
<rect width="12" height="12" transform="matrix(-1 0 0 1 138.5 132.5)" fill="#032869"/>
<rect width="12" height="12" transform="matrix(4.37114e-08 -1 -1 -4.37114e-08 102.5 132.5)" fill="#032869"/>
<rect width="12" height="12" transform="matrix(4.37114e-08 -1 -1 -4.37114e-08 90.5 120.5)" fill="#032869"/>
<rect width="12" height="12" transform="matrix(4.37114e-08 -1 -1 -4.37114e-08 126.5 132.5)" fill="#032869"/>
<rect width="12" height="12" transform="matrix(4.37114e-08 -1 -1 -4.37114e-08 138.5 120.5)" fill="#032869"/>
<rect width="12" height="12" transform="matrix(4.37114e-08 -1 -1 -4.37114e-08 114.5 144.5)" fill="#032869"/>
</svg>
