<svg fill="none" height="217" viewBox="0 0 217 217" width="217" xmlns="http://www.w3.org/2000/svg"><path d="m0 0h217v217h-217z" fill="#9ee6ff"/><g fill="#032869"><path d="m0 0h12v12h-12z" transform="matrix(-1 0 0 1 144.5 102.5)"/><path d="m0 0h12v12h-12z" transform="matrix(-1 0 0 1 108.5 102.5)"/><path d="m0 0h12v42h-12z" transform="matrix(-1 0 0 1 132.5 87.5)"/><path d="m0 0h12v42h-12z" transform="matrix(-1 0 0 1 96.5 87.5)"/><path d="m0 0h12v69h-12z" transform="matrix(-1 0 0 1 120.5 74)"/><path d="m0 0h12v69h-12z" transform="matrix(-1 0 0 1 84.5 74)"/></g></svg>