<svg fill="none" height="217" viewBox="0 0 217 217" width="217" xmlns="http://www.w3.org/2000/svg"><path d="m0 0h217v217h-217z" fill="#ae66d6"/><g fill="#032869"><path d="m0 0h12v46.5h-12z" transform="matrix(-1 0 0 1 86.5 84)"/><path d="m0 0h12v18h-12z" transform="matrix(-1 0 0 1 143.5 84)"/><path d="m0 0h12v16.5h-12z" transform="matrix(-1 0 0 1 143.5 114)"/><path d="m0 0h45v12h-45z" transform="matrix(-1 0 0 1 131.5 72)"/><path d="m0 0h45v12h-45z" transform="matrix(-1 0 0 1 131.5 130.5)"/><path d="m0 0h45v12h-45z" transform="matrix(-1 0 0 1 131.5 102)"/></g></svg>