<svg fill="none" height="217" viewBox="0 0 217 217" width="217" xmlns="http://www.w3.org/2000/svg"><path d="m0 0h217v217h-217z" fill="#015efe"/><g fill="#032869"><path d="m0 0h12v12h-12z" transform="matrix(-1 0 0 1 109 120)"/><path d="m0 0h12v12h-12z" transform="matrix(-1 0 0 1 97 108)"/><path d="m0 0h12v12h-12z" transform="matrix(-1 0 0 1 85 96)"/><path d="m0 0h12v12h-12z" transform="matrix(-1 0 0 1 121 108)"/><path d="m0 0h12v12h-12z" transform="matrix(-1 0 0 1 133 96)"/><path d="m0 0h12v12h-12z" transform="matrix(-1 0 0 1 145 84)"/></g></svg>