<svg fill="none" height="217" viewBox="0 0 217 217" width="217" xmlns="http://www.w3.org/2000/svg"><path d="m0 0h217v217h-217z" fill="#ae66d6"/><g fill="#032869"><path d="m0 0h18v12h-18z" transform="matrix(-1 0 0 1 102.5 102.5)"/><path d="m0 0h18v12h-18z" transform="matrix(-1 0 0 1 132.5 102.5)"/><path d="m0 0h18v12h-18z" transform="matrix(-.00000004 1 1 .00000004 102.5 84.5)"/><path d="m0 0h18v12h-18z" transform="matrix(-.00000004 1 1 .00000004 102.5 114.5)"/><path d="m0 0h12v12h-12z" transform="matrix(-1 0 0 1 84.5 102.5)"/><path d="m0 0h12v12h-12z" transform="matrix(-1 0 0 1 114.5 72.5)"/><path d="m0 0h12v12h-12z" transform="matrix(-1 0 0 1 114.5 132.5)"/><path d="m0 0h12v12h-12z" transform="matrix(-1 0 0 1 137 80)"/><path d="m0 0h12v12h-12z" transform="matrix(-1 0 0 1 137 125)"/><path d="m0 0h12v12h-12z" transform="matrix(-1 0 0 1 92 125)"/><path d="m0 0h12v12h-12z" transform="matrix(-1 0 0 1 92 80)"/><path d="m0 0h12v12h-12z" transform="matrix(-1 0 0 1 144.5 102.5)"/></g></svg>