<svg width="217" height="217" viewBox="0 0 217 217" fill="none" xmlns="http://www.w3.org/2000/svg">
<rect width="217" height="217" fill="#9ECCA6"/>
<rect width="12" height="12" transform="matrix(-1 0 0 1 114.5 78.5)" fill="#032869"/>
<rect width="12" height="12" transform="matrix(-1 0 0 1 114.5 126.5)" fill="#032869"/>
<rect width="12" height="12" transform="matrix(-1 0 0 1 126.5 90.5)" fill="#032869"/>
<rect width="12" height="12" transform="matrix(-1 0 0 1 126.5 114.5)" fill="#032869"/>
<rect width="12" height="12" transform="matrix(-1 0 0 1 102.5 114.5)" fill="#032869"/>
<rect width="12" height="12" transform="matrix(-1 0 0 1 90.5 126.5)" fill="#032869"/>
<rect width="12" height="12" transform="matrix(-1 0 0 1 102.5 90.5)" fill="#032869"/>
<rect width="12" height="12" transform="matrix(-1 0 0 1 90.5 78.5)" fill="#032869"/>
<rect width="12" height="12" transform="matrix(-1 0 0 1 114.5 102.5)" fill="#032869"/>
<rect width="12" height="12" transform="matrix(-1 0 0 1 138.5 102.5)" fill="#032869"/>
</svg>
