<svg fill="none" height="1233" viewBox="0 0 1357 1233" width="1357" xmlns="http://www.w3.org/2000/svg" xmlns:xlink="http://www.w3.org/1999/xlink"><filter id="a" color-interpolation-filters="sRGB" filterUnits="userSpaceOnUse" height="873" width="873" x="242" y="180"><feFlood flood-opacity="0" result="BackgroundImageFix"/><feBlend in="SourceGraphic" in2="BackgroundImageFix" mode="normal" result="shape"/><feTurbulence baseFrequency=".5 .5" numOctaves="3" seed="3166" type="fractalNoise"/><feDisplacementMap height="100%" in="shape" result="displacedImage" scale="120" width="100%" xChannelSelector="R" yChannelSelector="G"/><feMerge result="effect1_texture_284_1458"><feMergeNode in="displacedImage"/></feMerge></filter><linearGradient id="b" gradientUnits="userSpaceOnUse" x1="678.313" x2="678.313" y1="993" y2="240"><stop offset=".375551" stop-color="#9ee6ff" stop-opacity=".95"/><stop offset=".875771" stop-color="#001c4e"/><stop offset="1" stop-color="#001c4e"/></linearGradient><path d="m0 0h1357v1233h-1357z" fill="#001c4e"/><g filter="url(#a)"><ellipse cx="678.5" cy="616.5" fill="url(#b)" fill-opacity=".9" rx="376.5" ry="376.5" transform="matrix(-1 -0 0 -1 1357 1233)"/></g><g stroke="#fff" stroke-width="2.39975"><path d="m693.737 852.8c-9.814 0-19.378-6.287-28.264-18.164-8.871-11.856-16.91-29.089-23.683-50.491-13.541-42.789-21.935-101.977-21.935-167.407s8.394-124.617 21.935-167.407c6.773-21.402 14.812-38.634 23.683-50.49 8.886-11.878 18.45-18.164 28.264-18.164s19.378 6.286 28.265 18.164c8.871 11.856 16.911 29.088 23.684 50.49 13.541 42.79 21.934 101.977 21.934 167.407s-8.393 124.618-21.934 167.408c-6.773 21.401-14.813 38.634-23.684 50.49-8.887 11.877-18.451 18.164-28.265 18.164z"/><path d="m929.8 616.749c0 9.814-6.287 19.378-18.164 28.265-11.856 8.87-29.089 16.91-50.49 23.682-42.79 13.541-101.978 21.936-167.408 21.936s-124.617-8.395-167.407-21.936c-21.402-6.772-38.634-14.812-50.49-23.682-11.878-8.887-18.164-18.451-18.164-28.265s6.286-19.378 18.164-28.265c11.856-8.87 29.088-16.911 50.49-23.683 42.79-13.541 101.977-21.935 167.407-21.935s124.618 8.394 167.408 21.935c21.401 6.773 38.634 14.813 50.49 23.683 11.877 8.887 18.164 18.451 18.164 28.265z"/><path d="m895.265 733.864c0 8.366-5.324 16.549-15.453 24.176-10.108 7.612-24.811 14.519-43.087 20.34-36.539 11.638-87.092 18.855-142.984 18.855s-106.444-7.217-142.983-18.855c-18.276-5.821-32.979-12.728-43.087-20.34-10.129-7.627-15.453-15.81-15.453-24.176s5.324-16.548 15.453-24.176c10.108-7.612 24.811-14.518 43.087-20.339 36.539-11.639 87.091-18.856 142.983-18.856s106.445 7.217 142.984 18.856c18.276 5.821 32.979 12.727 43.087 20.339 10.129 7.628 15.453 15.81 15.453 24.176z"/><path d="m895.265 499.607c0 8.367-5.324 16.549-15.453 24.176-10.108 7.612-24.811 14.519-43.087 20.34-36.539 11.638-87.092 18.856-142.984 18.856-55.892-.001-106.444-7.218-142.983-18.856-18.276-5.821-32.979-12.728-43.087-20.34-10.129-7.627-15.453-15.809-15.453-24.176 0-8.366 5.324-16.548 15.453-24.175 10.108-7.612 24.811-14.519 43.087-20.34 36.539-11.638 87.091-18.856 142.983-18.856s106.445 7.218 142.984 18.856c18.276 5.821 32.979 12.727 43.087 20.34 10.129 7.627 15.453 15.809 15.453 24.175z"/><path d="m693.739 852.804c-45.111 0-86.078-26.263-115.816-68.978-29.736-42.711-48.165-101.78-48.165-167.084 0-65.303 18.429-124.373 48.165-167.084 29.738-42.715 70.705-68.977 115.816-68.977 45.112 0 86.079 26.262 115.818 68.977 29.735 42.711 48.165 101.781 48.165 167.084 0 65.304-18.43 124.373-48.165 167.084-29.739 42.715-70.706 68.978-115.818 68.978z"/></g><path d="m0 0h31.1968v31.1968h-31.1968z" fill="#fff" transform="matrix(-1 0 0 1 595.484 433.612)"/><path d="m0 0h31.1968v31.1968h-31.1968z" fill="#fff" transform="matrix(-1 0 0 1 782.664 544.001)"/><path d="m0 0h31.1968v31.1968h-31.1968z" fill="#fff" transform="matrix(-1 0 0 1 869.055 655.589)"/><path d="m0 0h31.1968v31.1968h-31.1968z" fill="#fff" transform="matrix(-1 0 0 1 596.684 764.778)"/></svg>