<svg width="1440" height="880" viewBox="0 0 1440 880" fill="none" xmlns="http://www.w3.org/2000/svg">
<rect width="1440" height="880" fill="#00004B"/>
<g filter="url(#filter0_g_212_1144)">
<path d="M975 440C975 572.548 929.246 680 735 680C602.452 680 495 572.548 495 440C494.999 224.173 602.452 200 735 200C937.879 200 975 307.452 975 440Z" fill="#2D62FF"/>
</g>
<circle cx="734.738" cy="439.742" r="196.738" transform="rotate(-180 734.738 439.742)" stroke="black" stroke-width="2"/>
<path d="M734.737 636.477C726.558 636.477 718.587 631.237 711.181 621.338C703.788 611.457 697.088 597.095 691.443 579.259C680.158 543.597 673.162 494.269 673.162 439.738C673.162 385.208 680.158 335.879 691.443 300.218C697.088 282.381 703.788 268.02 711.181 258.139C718.587 248.24 726.558 243 734.737 243C742.917 243 750.888 248.24 758.294 258.139C765.687 268.02 772.387 282.381 778.031 300.218C789.317 335.879 796.313 385.208 796.313 439.738C796.313 494.269 789.317 543.597 778.031 579.259C772.387 597.095 765.687 611.457 758.294 621.338C750.888 631.237 742.916 636.476 734.737 636.477Z" stroke="black" stroke-width="2"/>
<path d="M931.477 439.747C931.477 447.926 926.237 455.897 916.338 463.304C906.457 470.697 892.095 477.397 874.259 483.041C838.597 494.326 789.269 501.322 734.738 501.322C680.208 501.322 630.879 494.326 595.218 483.041C577.381 477.397 563.02 470.697 553.139 463.304C543.24 455.897 538 447.926 538 439.747C538 431.568 543.24 423.597 553.139 416.19C563.02 408.798 577.381 402.098 595.218 396.453C630.879 385.168 680.208 378.172 734.738 378.172C789.269 378.172 838.597 385.168 874.259 396.453C892.095 402.098 906.457 408.798 916.338 416.19C926.237 423.597 931.476 431.568 931.477 439.747Z" stroke="black" stroke-width="2"/>
<path d="M902.695 537.354C902.695 544.326 898.258 551.145 889.816 557.502C881.392 563.846 869.138 569.602 853.906 574.454C823.454 584.154 781.323 590.169 734.742 590.169C688.161 590.169 646.029 584.154 615.577 574.454C600.345 569.602 588.091 563.846 579.667 557.502C571.226 551.145 566.788 544.326 566.788 537.354C566.788 530.381 571.226 523.562 579.667 517.205C588.091 510.861 600.345 505.105 615.577 500.254C646.029 490.554 688.161 484.539 734.742 484.539C781.323 484.539 823.454 490.554 853.906 500.254C869.138 505.105 881.392 510.861 889.816 517.205C898.258 523.562 902.695 530.381 902.695 537.354Z" stroke="black" stroke-width="2"/>
<path d="M902.695 342.119C902.695 349.092 898.258 355.911 889.816 362.268C881.392 368.612 869.138 374.368 853.906 379.22C823.454 388.919 781.323 394.935 734.742 394.935C688.161 394.935 646.029 388.919 615.577 379.22C600.345 374.368 588.091 368.612 579.667 362.268C571.226 355.911 566.788 349.092 566.788 342.119C566.788 335.147 571.226 328.327 579.667 321.971C588.091 315.627 600.345 309.871 615.577 305.02C646.029 295.32 688.161 289.305 734.742 289.305C781.323 289.305 823.454 295.32 853.906 305.02C869.138 309.871 881.392 315.627 889.816 321.971C898.258 328.327 902.695 335.147 902.695 342.119Z" stroke="black" stroke-width="2"/>
<path d="M734.74 636.48C697.143 636.48 663.001 614.593 638.217 578.993C613.435 543.397 598.074 494.167 598.074 439.742C598.074 385.317 613.435 336.087 638.217 300.491C663.001 264.892 697.143 243.004 734.74 243.004C772.337 243.004 806.48 264.892 831.265 300.491C856.047 336.087 871.406 385.317 871.406 439.742C871.406 494.167 856.047 543.397 831.265 578.993C806.48 614.593 772.337 636.48 734.74 636.48Z" stroke="black" stroke-width="2"/>
<rect width="26" height="26" transform="matrix(-1 0 0 1 652.852 287.117)" fill="black"/>
<rect width="26" height="26" transform="matrix(-1 0 0 1 808.852 379.117)" fill="black"/>
<rect width="26" height="26" transform="matrix(-1 0 0 1 880.852 472.117)" fill="black"/>
<rect width="26" height="26" transform="matrix(-1 0 0 1 653.852 563.117)" fill="black"/>
<defs>
<filter id="filter0_g_212_1144" x="395" y="100" width="680" height="680" filterUnits="userSpaceOnUse" color-interpolation-filters="sRGB">
<feFlood flood-opacity="0" result="BackgroundImageFix"/>
<feBlend mode="normal" in="SourceGraphic" in2="BackgroundImageFix" result="shape"/>
<feTurbulence type="fractalNoise" baseFrequency="0.5 0.5" numOctaves="3" seed="8113" />
<feDisplacementMap in="shape" scale="200" xChannelSelector="R" yChannelSelector="G" result="displacedImage" width="100%" height="100%" />
<feMerge result="effect1_texture_212_1144">
<feMergeNode in="displacedImage"/>
</feMerge>
</filter>
</defs>
</svg>
