<svg width="1440" height="920" viewBox="0 0 1440 920" fill="none" xmlns="http://www.w3.org/2000/svg">
<g clip-path="url(#clip0_212_1009)">
<rect width="1440" height="920" fill="#00004B"/>
<g filter="url(#filter0_g_212_1009)">
<path d="M1236.18 -55.0342C1375.02 212.051 1232.72 561.041 918.358 724.456C603.991 887.871 236.596 803.83 97.7593 536.745C-41.0778 269.659 271.059 283.138 585.426 119.722C899.792 -43.6928 1097.35 -322.119 1236.18 -55.0342Z" fill="white"/>
</g>
<g filter="url(#filter1_g_212_1009)">
<path d="M-504.32 641.129C-504.32 540.875 -92.1573 641.129 416.271 641.129C924.699 641.129 1336.86 540.875 1336.86 641.13C1336.86 741.384 924.699 822.656 416.271 822.656C-92.1573 822.656 -589.195 901.755 -504.32 641.129Z" fill="#B84DA1"/>
</g>
<g filter="url(#filter2_g_212_1009)">
<path d="M-454.656 385.102C-361.559 119.958 -65.7688 521.647 413.948 690.084C893.665 858.521 1375.65 729.922 1282.55 995.066C1189.46 1260.21 725.098 1338.61 245.382 1170.17C-234.335 1001.73 -776.756 1046.26 -454.656 385.102Z" fill="#B84DA1"/>
</g>
<g filter="url(#filter3_g_212_1009)">
<path d="M779.217 -276.125C1059.76 -130.751 1138.23 274.544 954.488 629.128C770.746 983.712 394.371 1153.31 113.83 1007.94C-166.711 862.563 119.012 666.916 302.754 312.332C486.496 -42.2514 498.676 -421.498 779.217 -276.125Z" fill="#1134F5"/>
</g>
</g>
<defs>
<filter id="filter0_g_212_1009" x="-36.1582" y="-265.959" width="1425.54" height="1173.83" filterUnits="userSpaceOnUse" color-interpolation-filters="sRGB">
<feFlood flood-opacity="0" result="BackgroundImageFix"/>
<feBlend mode="normal" in="SourceGraphic" in2="BackgroundImageFix" result="shape"/>
<feTurbulence type="fractalNoise" baseFrequency="0.66666668653488159 0.66666668653488159" numOctaves="3" seed="8113" />
<feDisplacementMap in="shape" scale="200" xChannelSelector="R" yChannelSelector="G" result="displacedImage" width="100%" height="100%" />
<feMerge result="effect1_texture_212_1009">
<feMergeNode in="displacedImage"/>
</feMerge>
</filter>
<filter id="filter1_g_212_1009" x="-563.838" y="546.572" width="1950.7" height="337.369" filterUnits="userSpaceOnUse" color-interpolation-filters="sRGB">
<feFlood flood-opacity="0" result="BackgroundImageFix"/>
<feBlend mode="normal" in="SourceGraphic" in2="BackgroundImageFix" result="shape"/>
<feTurbulence type="fractalNoise" baseFrequency="0.66666668653488159 0.66666668653488159" numOctaves="3" seed="8113" />
<feDisplacementMap in="shape" scale="100" xChannelSelector="R" yChannelSelector="G" result="displacedImage" width="100%" height="100%" />
<feMerge result="effect1_texture_212_1009">
<feMergeNode in="displacedImage"/>
</feMerge>
</filter>
<filter id="filter2_g_212_1009" x="-601.791" y="246.969" width="1945.97" height="1061.96" filterUnits="userSpaceOnUse" color-interpolation-filters="sRGB">
<feFlood flood-opacity="0" result="BackgroundImageFix"/>
<feBlend mode="normal" in="SourceGraphic" in2="BackgroundImageFix" result="shape"/>
<feTurbulence type="fractalNoise" baseFrequency="0.66666668653488159 0.66666668653488159" numOctaves="3" seed="8113" />
<feDisplacementMap in="shape" scale="100" xChannelSelector="R" yChannelSelector="G" result="displacedImage" width="100%" height="100%" />
<feMerge result="effect1_texture_212_1009">
<feMergeNode in="displacedImage"/>
</feMerge>
</filter>
<filter id="filter3_g_212_1009" x="-103.811" y="-407.984" width="1257.62" height="1567.97" filterUnits="userSpaceOnUse" color-interpolation-filters="sRGB">
<feFlood flood-opacity="0" result="BackgroundImageFix"/>
<feBlend mode="normal" in="SourceGraphic" in2="BackgroundImageFix" result="shape"/>
<feTurbulence type="fractalNoise" baseFrequency="0.66666668653488159 0.66666668653488159" numOctaves="3" seed="8113" />
<feDisplacementMap in="shape" scale="200" xChannelSelector="R" yChannelSelector="G" result="displacedImage" width="100%" height="100%" />
<feMerge result="effect1_texture_212_1009">
<feMergeNode in="displacedImage"/>
</feMerge>
</filter>
<clipPath id="clip0_212_1009">
<rect width="1440" height="920" fill="white"/>
</clipPath>
</defs>
</svg>
